<svg width="84" height="84" viewBox="0 0 84 84" fill="none" xmlns="http://www.w3.org/2000/svg">
  <path d="M42 8C60.778 8 76 23.222 76 42C76 60.778 60.778 76 42 76C23.222 76 8 60.778 8 42C8 23.222 23.222 8 42 8Z" fill="#E7F7EF"/>
  <path d="M42 13C58.016 13 71 25.984 71 42C71 58.016 58.016 71 42 71C25.984 71 13 58.016 13 42C13 25.984 25.984 13 42 13Z" fill="white"/>
  <path d="M29.5 27.5C29.5 20.596 35.096 15 42 15H57V30C57 36.904 51.404 42.5 44.5 42.5H29.5V27.5Z" fill="#0FA968"/>
  <path d="M27 41.5C27 34.596 32.596 29 39.5 29H54.5V44C54.5 50.904 48.904 56.5 42 56.5H27V41.5Z" fill="#11BE78"/>
  <path d="M40 54C40 47.925 44.925 43 51 43H63V55C63 61.075 58.075 66 52 66H40V54Z" fill="#087A52"/>
  <path d="M24 47C18.477 47 14 42.523 14 37V26H25C30.523 26 35 30.477 35 36V47H24Z" fill="#A9E8C8"/>
  <circle cx="42" cy="42" r="7.5" fill="#0A3F32"/>
  <circle cx="42" cy="42" r="3.25" fill="white"/>
</svg>
